# xmcd
#
# Track frame offsets:
#	150
#	13845
#	33620
#	45608
#	69770
#	91658
#	110308
#	124283
#	141555
#	161705
#	180228
#
# Disc length: 2782 seconds
#
# Revision: 32
# Processed by: cddbd v1.5.2PL0 Copyright (c) Steve Scherf et al.
# Submitted via: Jack! The Knife 20 Magnifico
#
DISCID=8e0adc0b
DTITLE=Def Leppard - Slang
DYEAR=1996
DGENRE=Hard Rock
TTITLE0=Truth?
TTITLE1=Turn To Dust
TTITLE2=Slang
TTITLE3=All I Want Is Everything
TTITLE4=Work It Out
TTITLE5=Breathe A Sigh
TTITLE6=Deliver Me
TTITLE7=Gift Of Flesh
TTITLE8=Blood Runs Cold
TTITLE9=Where Does Love Go When It Dies
TTITLE10=Pearl Of Euphoria
EXTD=Pete Woodroffe and Def Leppard
EXTT0=Collen, Elliott, Savage, Campbell
EXTT1=Phil Collen
EXTT2=Collen, Elliott
EXTT3=Joe Elliott
EXTT4=Vivian Campbell
EXTT5=Phil Collen
EXTT6=Collen, Elliott
EXTT7=Phil Collen
EXTT8=Collen, Elliott
EXTT9=Elliott, Collen
EXTT10=Elliott, Collen, Savage
PLAYORDER=
